<svg fill="none" height="69" viewBox="0 0 75 69" width="75" xmlns="http://www.w3.org/2000/svg"><circle cx="34" cy="34" fill="#f3b947" r="34"/><path d="m45.9561 28.9374c0 2.4727-.7333 4.7408-1.9953 6.6338-.9247 1.3792-2.1276 2.5498-3.5314 3.4367s-2.9775 1.4705-4.6201 1.7134c-.5798.1023-1.1767.1535-1.7906.1535-.614 0-1.2108-.0512-1.7906-.1535-1.6427-.2429-3.2164-.8265-4.6202-1.7134s-2.6067-2.0575-3.5314-3.4367c-1.3091-1.964-2.0038-4.2735-1.9952-6.6338 0-6.5997 5.3377-11.9374 11.9374-11.9374 6.5996 0 11.9374 5.3377 11.9374 11.9374z" stroke="#fff" stroke-linecap="round" stroke-linejoin="round" stroke-width="2"/><path d="m49.7931 45.087-2.8138.6651c-.631.1534-1.1256.6309-1.262 1.2619l-.5969 2.5069c-.0732.3077-.2305.589-.4544.8124-.224.2234-.5056.3802-.8135.4527-.3079.0726-.6299.0581-.93-.0419-.3001-.0999-.5665-.2814-.7694-.524l-8.1344-9.3453-8.1345 9.3623c-.2029.2427-.4693.4241-.7694.5241-.3001.0999-.6221.1144-.93.0419-.3079-.0726-.5895-.2293-.8134-.4527-.2239-.2235-.3813-.5048-.4545-.8125l-.5969-2.5068c-.0725-.3068-.229-.5872-.4519-.8101-.2228-.2229-.5033-.3793-.81-.4519l-2.8139-.6651c-.2948-.0706-.5655-.2184-.7844-.4281s-.3782-.4738-.4615-.7653-.0876-.5999-.0125-.8936.2269-.5622.4399-.7779l6.6508-6.6509c.9247 1.3792 2.1276 2.5498 3.5314 3.4367 1.4038.887 2.9775 1.4706 4.6201 1.7135.5799.1023 1.1767.1534 1.7907.1534.6139 0 1.2108-.0511 1.7906-.1534 3.3936-.4946 6.3097-2.4216 8.1515-5.1502l6.6508 6.6509c.938.9208.4775 2.5409-.8185 2.8479zm-14.7853-21.2997 1.0061 2.0123c.1364.2728.4946.5457.8186.5968l1.8247.307c1.1596.1876 1.4325 1.0403.5969 1.8759l-1.4155 1.4154c-.2387.2388-.3752.6992-.2899 1.0403l.4093 1.7565c.324 1.3813-.4093 1.927-1.6371 1.1937l-1.7054-1.0061c-.1732-.0925-.3664-.1408-.5627-.1408s-.3896.0483-.5628.1408l-1.7053 1.0061c-1.2279.7162-1.9612.1876-1.6372-1.1937l.4093-1.7565c.0682-.3241-.0511-.8015-.2899-1.0403l-1.4154-1.4154c-.8356-.8356-.5628-1.6713.5968-1.8759l1.8248-.307c.3069-.0511.665-.324.8015-.5968l1.0061-2.0123c.4946-1.0915 1.3813-1.0915 1.9271 0z" stroke="#fff" stroke-linecap="round" stroke-linejoin="round" stroke-width="2"/><circle cx="55" cy="49" fill="#ff1a0c" opacity=".35" r="20"/></svg>