<svg fill="none" height="69" viewBox="0 0 81 69" width="81" xmlns="http://www.w3.org/2000/svg"><circle cx="34" cy="34" fill="#f3b947" r="34"/><g fill="#fff"><path d="m44.2129 27.2176c-.0505 0-.0842 0-.1347 0h-.0842c-3.1834-.101-5.5583-2.5602-5.5583-5.5919 0-3.0992 2.5265-5.6088 5.6088-5.6088s5.6088 2.5264 5.6088 5.6088c-.0169 3.0486-2.3918 5.5077-5.4235 5.6087 0-.0168 0-.0168-.0169-.0168zm-.1684-8.6911c-1.7012 0-3.0823 1.3812-3.0823 3.0823 0 1.6675 1.2969 3.015 2.9644 3.0823.0168-.0168.1516-.0168.3032 0 1.6338-.0842 2.897-1.4316 2.9138-3.0823 0-1.7011-1.3811-3.0823-3.0991-3.0823z"/><path d="m44.2301 39.6312c-.6569 0-1.3138-.0505-1.9707-.1684-.6906-.1179-1.1453-.7748-1.0274-1.4654s.7747-1.1453 1.4653-1.0274c2.0717.3537 4.2614-.0335 5.7267-1.0105.7916-.5221 1.2127-1.1791 1.2127-1.836s-.4379-1.297-1.2127-1.8191c-1.4653-.9769-3.6887-1.3643-5.7772-.9937-.6906.1347-1.3475-.3369-1.4654-1.0274-.1179-.6906.3369-1.3475 1.0275-1.4654 2.7454-.4884 5.5919.0337 7.6131 1.3812 1.4822.9936 2.3412 2.4085 2.3412 3.9244 0 1.499-.8422 2.9309-2.3412 3.9414-1.5327 1.0106-3.5202 1.5663-5.5919 1.5663z"/><path d="m23.9508 27.2176c-.0169 0-.0337 0-.0337 0-3.0318-.1011-5.4067-2.5602-5.4235-5.592 0-3.0991 2.5265-5.6256 5.6088-5.6256s5.6088 2.5265 5.6088 5.6088c0 3.0486-2.3749 5.5077-5.4067 5.6088l-.3537-1.2633.1179 1.2633c-.0337 0-.0842 0-.1179 0zm.1684-2.5265c.1011 0 .1853 0 .2864.0168 1.499-.0673 2.8128-1.4148 2.8128-3.0823 0-1.7011-1.3812-3.0823-3.0823-3.0823-1.7012 0-3.0823 1.3812-3.0823 3.0823 0 1.6507 1.28 2.9813 2.9138 3.0823.0169-.0168.0843-.0168.1516-.0168z"/><path d="m23.9332 39.6312c-2.0718 0-4.0593-.5557-5.592-1.5663-1.4822-.9937-2.3412-2.4255-2.3412-3.9414 0-1.4991.859-2.9308 2.3412-3.9244 2.0212-1.3475 4.8677-1.8696 7.6131-1.3812.6906.1179 1.1454.7748 1.0275 1.4654-.1179.6905-.7748 1.1621-1.4654 1.0274-2.0885-.3706-4.295.0168-5.7772.9937-.7916.5221-1.2127 1.1622-1.2127 1.8191s.4379 1.3139 1.2127 1.836c1.4654.977 3.655 1.3642 5.7267 1.0105.6906-.1179 1.3474.3537 1.4653 1.0274.1179.6906-.3368 1.3475-1.0274 1.4654-.6569.1179-1.3138.1684-1.9706.1684z"/><path d="m34.107 39.7995c-.0505 0-.0842 0-.1348 0h-.0842c-3.1833-.1011-5.5582-2.5602-5.5582-5.592 0-3.0991 2.5264-5.6088 5.6087-5.6088 3.0824 0 5.6088 2.5265 5.6088 5.6088-.0168 3.0486-2.3917 5.5077-5.4235 5.6088 0-.0168 0-.0168-.0168-.0168zm-.1685-8.6911c-1.7011 0-3.0823 1.3811-3.0823 3.0823 0 1.6675 1.297 3.0149 2.9644 3.0823.0169-.0169.1516-.0169.3032 0 1.6338-.0842 2.8971-1.4317 2.9139-3.0823 0-1.6843-1.3811-3.0823-3.0992-3.0823z"/><path d="m34.1053 52.2298c-2.0212 0-4.0424-.5222-5.6088-1.5833-1.4822-.9938-2.3412-2.4086-2.3412-3.9245 0-1.499.8421-2.9475 2.3412-3.9413 3.1497-2.0885 8.0847-2.0885 11.2176 0 1.4822.9938 2.3412 2.4086 2.3412 3.9245 0 1.499-.8422 2.9475-2.3412 3.9413-1.5665 1.0443-3.5876 1.5833-5.6088 1.5833zm-4.2108-7.3268c-.7917.5221-1.2127 1.179-1.2127 1.8359s.4379 1.2969 1.2127 1.819c2.2738 1.5328 6.1309 1.5328 8.4047 0 .7917-.5221 1.2127-1.179 1.2127-1.8359s-.4379-1.2969-1.2127-1.819c-2.257-1.5328-6.1141-1.5159-8.4047 0z"/></g><circle cx="61" cy="49" fill="#ff1a0c" opacity=".35" r="20"/></svg>