<svg fill="none" height="71" viewBox="0 0 81 71" width="81" xmlns="http://www.w3.org/2000/svg"><circle cx="34" cy="34" fill="#a61c3c" r="34"/><g fill="#fff"><path d="m40.9684 52.0166h-13.7736c-7.9542 0-9.4349-3.7016-9.8137-7.3l-1.2913-13.7908c-.1893-1.8078-.241-4.4765 1.5496-6.4736 1.5495-1.7217 4.1148-2.5482 7.8337-2.5482h17.217c3.7361 0 6.3014.8437 7.8338 2.5482 1.7905 1.9971 1.7389 4.6658 1.5495 6.4908l-1.2913 13.7564c-.3788 3.6156-1.8594 7.3172-9.8137 7.3172zm-15.4953-27.5472c-2.9097 0-4.9068.5681-5.9226 1.7045-.8437.9297-1.1191 2.3587-.8953 4.4936l1.2913 13.7908c.2926 2.7203 1.033 4.9758 7.2483 4.9758h13.7736c6.1981 0 6.9557-2.2555 7.2484-4.993l1.2913-13.7564c.2238-2.1521-.0517-3.5811-.8953-4.5108-1.0158-1.1364-3.013-1.7045-5.9227-1.7045z"/><path d="m40.968 24.4694c-.7059 0-1.2912-.5854-1.2912-1.2913v-1.3774c0-3.0646 0-4.2181-4.2182-4.2181h-2.7547c-4.2182 0-4.2182 1.1535-4.2182 4.2181v1.3774c0 .7059-.5854 1.2913-1.2913 1.2913s-1.2913-.5854-1.2913-1.2913v-1.3774c0-3.0302 0-6.8007 6.8008-6.8007h2.7547c6.8007 0 6.8007 3.7705 6.8007 6.8007v1.3774c0 .7059-.5854 1.2913-1.2913 1.2913z"/><path d="m34.0812 41.6864c-4.7346 0-4.7346-2.9269-4.7346-4.683v-1.7734c0-2.4276.5853-3.013 3.0129-3.013h3.4434c2.4276 0 3.013.5854 3.013 3.013v1.7217c0 1.7906 0 4.7347-4.7347 4.7347zm-2.1521-6.8868v.4304 1.7734c0 1.7733 0 2.1004 2.1521 2.1004 2.1522 0 2.1522-.2754 2.1522-2.1176v-1.7562c0-.1377 0-.2927 0-.4304-.1378 0-.2927 0-.4305 0h-3.4434c-.1377 0-.2927 0-.4304 0z"/><path d="m37.5238 38.2774c-.637 0-1.2052-.4821-1.274-1.1363-.0861-.7059.4132-1.3601 1.1191-1.4462 4.5453-.5682 8.9012-2.2899 12.5684-4.9585.5682-.4305 1.3774-.2927 1.8078.2927.4132.5681.2927 1.3773-.2927 1.8077-4.0288 2.9269-8.7807 4.8036-13.7736 5.4406-.0517 0-.1033 0-.155 0z"/><path d="m30.6391 38.2945c-.0516 0-.1033 0-.1549 0-4.7175-.5338-9.3145-2.2555-13.2916-4.9757-.5854-.396-.7403-1.2052-.3443-1.7906s1.2052-.7403 1.7905-.3444c3.6328 2.4793 7.8166 4.046 12.1208 4.5453.7059.0861 1.2224.7232 1.1363 1.4291-.0516.6542-.6026 1.1363-1.2568 1.1363z"/></g><circle cx="61" cy="51" fill="#f3b947" opacity=".7" r="20"/></svg>