<svg fill="none" height="69" viewBox="0 0 75 69" width="75" xmlns="http://www.w3.org/2000/svg"><circle cx="34" cy="34" fill="#f3b947" r="34"/><path d="m36.0999 19.7854-13.6833 14.4834c-.5167.55-1.0167 1.6333-1.1167 2.3833l-.6166 5.4c-.2167 1.95 1.1833 3.2833 3.1166 2.95l5.3667-.9167c.75-.1333 1.8-.6833 2.3167-1.25l13.6833-14.4833c2.3667-2.5 3.4333-5.35-.25-8.8333-3.6667-3.45-6.45-2.2334-8.8167.2666z" stroke="#fff" stroke-linecap="round" stroke-linejoin="round" stroke-miterlimit="10" stroke-width="2"/><path d="m33.8167 22.202c.3494 2.2348 1.431 4.2902 3.075 5.8438 1.644 1.5535 3.7574 2.5171 6.0083 2.7396m-23.9 19.6666h30" stroke="#fff" stroke-linecap="round" stroke-linejoin="round" stroke-miterlimit="10" stroke-width="2"/><circle cx="55" cy="49" fill="#ff1a0c" opacity=".35" r="20"/></svg>