<svg fill="none" height="70" viewBox="0 0 73 70" width="73" xmlns="http://www.w3.org/2000/svg"><circle cx="34" cy="34" fill="#a61c3c" r="34"/><g stroke="#fff" stroke-linecap="round" stroke-linejoin="round" stroke-width="2"><path d="m32.1059 34c2.2422 0 4.3926-.8907 5.9781-2.4762s2.4762-3.7359 2.4762-5.9782c0-2.2422-.8907-4.3926-2.4762-5.9781s-3.7359-2.4762-5.9781-2.4762-4.3926.8907-5.9781 2.4762-2.4762 3.7359-2.4762 5.9781c0 2.2423.8907 4.3927 2.4762 5.9782s3.7359 2.4762 5.9781 2.4762z"/><path d="m44.2971 40.3238-5.9857 5.9857c-.2367.2367-.4565.6764-.5072.9976l-.3213 2.2827c-.1184.8285.4565 1.4034 1.2851 1.285l2.2826-.3212c.3213-.0507.7778-.2706.9976-.5073l5.9857-5.9856c1.0314-1.0315 1.5218-2.232 0-3.7538-1.5049-1.5048-2.7054-1.0145-3.7368.0169z" stroke-miterlimit="10"/><path d="m43.4346 41.1862c.5073 1.8261 1.9276 3.2464 3.7538 3.7537" stroke-miterlimit="10"/><path d="m17.5814 50.9086c0-6.5436 6.5099-11.836 14.5246-11.836 1.7585 0 3.4493.2536 5.0218.727"/></g><circle cx="53" cy="50" fill="#f3b947" opacity=".7" r="20"/></svg>