<svg fill="none" height="71" viewBox="0 0 75 71" width="75" xmlns="http://www.w3.org/2000/svg"><circle cx="34" cy="34" fill="#a61c3c" r="34"/><path d="m34 22.8464v25.7096m-7.225-20.5677h-3.825m5.1 5.1419h-5.1m28.05 8.9984v-20.6876c0-2.0568-1.666-3.5822-3.689-3.4108h-.102c-3.57.3085-8.993 2.1424-12.019 4.0621l-.289.1885c-.493.3085-1.309.3085-1.802 0l-.425-.2571c-3.026-1.9025-8.432-3.7193-12.002-4.0107-2.023-.1714-3.672 1.3712-3.672 3.4108v20.7048c0 1.6454 1.326 3.188 2.958 3.3937l.493.0685c3.689.4971 9.384 2.3824 12.648 4.1821l.068.0343c.459.2571 1.19.2571 1.632 0 3.264-1.8168 8.976-3.7193 12.682-4.2164l.561-.0685c1.632-.2057 2.958-1.7483 2.958-3.3937z" stroke="#fff" stroke-linecap="round" stroke-linejoin="round" stroke-width="2"/><circle cx="55" cy="51" fill="#f3b947" opacity=".7" r="20"/></svg>