<svg fill="none" height="138" viewBox="0 0 1440 138" width="1440" xmlns="http://www.w3.org/2000/svg"><path d="m-30 137 133.564-116.8909c30.164-26.39847 75.208-26.39843 105.372.0001l80.878 70.7817c30.164 26.3981 75.208 26.3981 105.372-.0001l80.878-70.7816c30.164-26.39848 75.208-26.39853 105.372 0l80.878 70.7817c30.164 26.3981 75.208 26.3981 105.372-.0001l80.878-70.7816c30.164-26.39848 75.208-26.39852 105.372 0l80.874 70.7816c30.17 26.3982 75.21 26.3982 105.38 0l80.87-70.7816c30.17-26.39849 75.21-26.39854 105.38-.0001l133.56 116.8909" stroke="#cdcccc" stroke-dasharray="10 15" stroke-linejoin="round"/></svg>